<svg width="68" height="46" viewBox="0 0 68 46" fill="none" xmlns="http://www.w3.org/2000/svg">
<path d="M18.4906 43L15.1546 34.78H14.0506L10.7026 43H11.8426L12.6706 40.912H16.4746L17.3146 43H18.4906ZM14.5786 36.16L16.0786 39.904H13.0786L14.5786 36.16ZM21.1729 40.66C21.2929 40.66 21.4129 40.66 21.5329 40.648C21.6529 40.636 21.7609 40.612 21.8809 40.588L23.5729 43H24.8809L22.7929 40.108C22.9609 39.964 23.1289 39.784 23.3089 39.556C23.4769 39.34 23.6809 39.052 23.8969 38.704L24.6289 37.612H23.4529L22.7209 38.704C22.4809 39.064 22.2409 39.328 22.0009 39.472C21.7609 39.628 21.4849 39.7 21.1729 39.7H20.7409V37.612H19.6489V43H20.7409V40.66H21.1729ZM27.5596 40.66C27.6796 40.66 27.7996 40.66 27.9196 40.648C28.0396 40.636 28.1476 40.612 28.2676 40.588L29.9596 43H31.2676L29.1796 40.108C29.3476 39.964 29.5156 39.784 29.6956 39.556C29.8636 39.34 30.0676 39.052 30.2836 38.704L31.0156 37.612H29.8396L29.1076 38.704C28.8676 39.064 28.6276 39.328 28.3876 39.472C28.1476 39.628 27.8716 39.7 27.5596 39.7H27.1276V37.612H26.0356V43H27.1276V40.66H27.5596ZM37.5583 43V37.612H36.6223L36.4903 38.392C36.2623 38.104 35.9983 37.888 35.6863 37.732C35.3743 37.576 35.0263 37.492 34.6663 37.492C33.9103 37.492 33.2863 37.768 32.7823 38.296C32.2783 38.836 32.0383 39.508 32.0383 40.312C32.0383 41.116 32.2783 41.788 32.7823 42.316C33.2863 42.856 33.9103 43.12 34.6663 43.12C35.0263 43.12 35.3743 43.048 35.6863 42.892C35.9983 42.736 36.2623 42.508 36.4903 42.22L36.6223 43H37.5583ZM33.1303 40.312C33.1303 39.784 33.2863 39.352 33.6103 38.992C33.9343 38.644 34.3423 38.464 34.8343 38.464C35.3143 38.464 35.7223 38.644 36.0583 38.992C36.3823 39.352 36.5503 39.784 36.5503 40.312C36.5503 40.84 36.3823 41.272 36.0583 41.62C35.7223 41.98 35.3143 42.148 34.8343 42.148C34.3423 42.148 33.9343 41.98 33.6103 41.62C33.2863 41.272 33.1303 40.84 33.1303 40.312ZM44.5301 42.928C44.5301 42.688 44.4941 42.436 44.4461 42.184C44.3981 41.932 44.3141 41.704 44.2181 41.488L44.1221 41.284V37.612H43.0181V41.188C42.8261 41.5 42.5981 41.728 42.3461 41.884C42.0941 42.052 41.8301 42.124 41.5661 42.124C41.1821 42.124 40.8941 42.004 40.6901 41.764C40.4741 41.524 40.3781 41.176 40.3781 40.732V37.612H39.2861V40.864C39.2861 41.584 39.4541 42.136 39.8141 42.532C40.1621 42.928 40.6541 43.12 41.2901 43.12C41.6741 43.12 42.0461 43.012 42.3941 42.796C42.7421 42.58 43.0301 42.292 43.2461 41.908C43.3181 42.076 43.3661 42.232 43.4021 42.388C43.4261 42.544 43.4501 42.7 43.4501 42.868C43.4501 43.372 43.2701 43.78 42.9221 44.092C42.5621 44.404 42.1181 44.56 41.5661 44.56C41.2061 44.56 40.8581 44.5 40.5221 44.38C40.1861 44.26 39.8621 44.08 39.5501 43.828L39.0221 44.644C39.3821 44.932 39.7901 45.16 40.2461 45.304C40.6901 45.448 41.1581 45.52 41.6501 45.52C42.4661 45.52 43.1501 45.28 43.7021 44.788C44.2541 44.308 44.5301 43.684 44.5301 42.928ZM50.8992 43V37.612H49.8072V39.76H47.1432V37.612H46.0512V43H47.1432V40.696H49.8072V43H50.8992ZM54.1341 38.548V43H55.2261V38.548H57.2181V37.612H52.1421V38.548H54.1341Z" fill="#7E839C"/>
<path d="M45.5707 24V21.4445C45.5707 18.6217 43.0444 16.3334 39.928 16.3334H28.6427C25.5263 16.3334 23 18.6217 23 21.4445V24" stroke="#7E839C" stroke-width="1.5" stroke-linecap="round" stroke-linejoin="round"/>
<path fill-rule="evenodd" clip-rule="evenodd" d="M34.2854 11.2222C37.4017 11.2222 39.928 8.9339 39.928 6.11111C39.928 3.28832 37.4017 1 34.2854 1C31.169 1 28.6427 3.28832 28.6427 6.11111C28.6427 8.9339 31.169 11.2222 34.2854 11.2222Z" stroke="#7E839C" stroke-width="1.5" stroke-linecap="round" stroke-linejoin="round"/>
</svg>
