<svg width="69" height="46" viewBox="0 0 69 46" fill="none" xmlns="http://www.w3.org/2000/svg">
<path d="M14.4686 43C15.4166 43 16.1726 42.796 16.7246 42.376C17.2766 41.968 17.5646 41.404 17.5646 40.696C17.5646 40.252 17.4206 39.856 17.1566 39.508C16.8806 39.172 16.4966 38.896 15.9926 38.704C16.3766 38.512 16.6766 38.272 16.8926 37.96C17.0966 37.66 17.2046 37.312 17.2046 36.928C17.2046 36.256 16.9526 35.74 16.4606 35.356C15.9566 34.972 15.2726 34.78 14.4086 34.78H12.0446V43H14.4686ZM16.0766 37.012C16.0766 37.396 15.9326 37.708 15.6446 37.924C15.3566 38.152 14.9606 38.26 14.4686 38.26H13.1606V35.764H14.4686C14.9606 35.764 15.3566 35.884 15.6446 36.1C15.9326 36.328 16.0766 36.628 16.0766 37.012ZM16.4366 40.636C16.4366 41.08 16.2686 41.416 15.9326 41.656C15.5966 41.896 15.1286 42.016 14.5286 42.016H13.1606V39.244H14.5286C15.1286 39.244 15.5966 39.376 15.9326 39.616C16.2686 39.856 16.4366 40.204 16.4366 40.636ZM24.036 43V37.612H23.016L20.208 41.5V37.612H19.188V43H20.208L23.016 39.112V43H24.036ZM27.2708 38.548V43H28.3628V38.548H30.3548V37.612H25.2788V38.548H27.2708ZM37.1181 40.3C37.1181 39.508 36.8661 38.836 36.3621 38.296C35.8581 37.768 35.2341 37.492 34.4901 37.492C34.1181 37.492 33.7821 37.576 33.4701 37.732C33.1581 37.888 32.8821 38.104 32.6661 38.392L32.5341 37.612H31.5981V45.4H32.6901V42.256C32.9061 42.544 33.1701 42.76 33.4821 42.904C33.7941 43.048 34.1301 43.12 34.4901 43.12C35.2341 43.12 35.8581 42.856 36.3621 42.316C36.8661 41.788 37.1181 41.116 37.1181 40.3ZM34.3221 38.464C34.8021 38.464 35.2101 38.644 35.5341 38.992C35.8581 39.352 36.0261 39.784 36.0261 40.3C36.0261 40.828 35.8581 41.272 35.5341 41.62C35.2101 41.98 34.8021 42.148 34.3221 42.148C33.8301 42.148 33.4221 41.98 33.0981 41.62C32.7621 41.272 32.6061 40.828 32.6061 40.3C32.6061 39.784 32.7621 39.352 33.0981 38.992C33.4221 38.644 33.8301 38.464 34.3221 38.464ZM43.4539 43V37.612H42.4339L39.6259 41.5V37.612H38.6059V43H39.6259L42.4339 39.112V43H43.4539ZM50.1688 43V37.612H49.0768V39.76H46.4128V37.612H45.3208V43H46.4128V40.696H49.0768V43H50.1688ZM57.1716 43V37.612H56.2356L56.1036 38.392C55.8756 38.104 55.6116 37.888 55.2996 37.732C54.9876 37.576 54.6396 37.492 54.2796 37.492C53.5236 37.492 52.8996 37.768 52.3956 38.296C51.8916 38.836 51.6516 39.508 51.6516 40.312C51.6516 41.116 51.8916 41.788 52.3956 42.316C52.8996 42.856 53.5236 43.12 54.2796 43.12C54.6396 43.12 54.9876 43.048 55.2996 42.892C55.6116 42.736 55.8756 42.508 56.1036 42.22L56.2356 43H57.1716ZM52.7436 40.312C52.7436 39.784 52.8996 39.352 53.2236 38.992C53.5476 38.644 53.9556 38.464 54.4476 38.464C54.9276 38.464 55.3356 38.644 55.6716 38.992C55.9956 39.352 56.1636 39.784 56.1636 40.312C56.1636 40.84 55.9956 41.272 55.6716 41.62C55.3356 41.98 54.9276 42.148 54.4476 42.148C53.9556 42.148 53.5476 41.98 53.2236 41.62C52.8996 41.272 52.7436 40.84 52.7436 40.312Z" fill="#7E839C"/>
<path d="M30.6482 9.29112V3.02038C30.6482 2.8913 30.6971 2.76673 30.7901 2.67724C32.1773 1.34262 35.3981 -0.310936 38.4128 2.67407C38.5045 2.76488 38.5557 2.8913 38.5557 3.02038V9.29112" stroke="#7E839C" stroke-width="1.5"/>
<path d="M42.1325 5.17267H27.0714C26.5424 5.17267 26.1049 5.5847 26.0732 6.11278L25.0636 22.9401C25.0291 23.5149 25.486 24 26.0618 24H43.1421C43.7179 24 44.1748 23.5149 44.1403 22.9401L43.1307 6.11278C43.099 5.5847 42.6615 5.17267 42.1325 5.17267Z" stroke="#7E839C" stroke-width="1.5"/>
</svg>
