<svg width="68" height="45" viewBox="0 0 68 45" fill="none" xmlns="http://www.w3.org/2000/svg">
<path d="M13.9438 42V34.788H17.5078V33.78H12.8278V42H13.9438ZM22.5332 42L20.3132 36.612H19.1612L16.9652 42H18.0332L19.7132 37.752L21.4052 42H22.5332ZM28.7986 42V36.612H27.8626L27.7306 37.392C27.5026 37.104 27.2386 36.888 26.9266 36.732C26.6146 36.576 26.2666 36.492 25.9066 36.492C25.1506 36.492 24.5266 36.768 24.0226 37.296C23.5186 37.836 23.2786 38.508 23.2786 39.312C23.2786 40.116 23.5186 40.788 24.0226 41.316C24.5266 41.856 25.1506 42.12 25.9066 42.12C26.2666 42.12 26.6146 42.048 26.9266 41.892C27.2386 41.736 27.5026 41.508 27.7306 41.22L27.8626 42H28.7986ZM24.3706 39.312C24.3706 38.784 24.5266 38.352 24.8506 37.992C25.1746 37.644 25.5826 37.464 26.0746 37.464C26.5546 37.464 26.9626 37.644 27.2986 37.992C27.6226 38.352 27.7906 38.784 27.7906 39.312C27.7906 39.84 27.6226 40.272 27.2986 40.62C26.9626 40.98 26.5546 41.148 26.0746 41.148C25.5826 41.148 25.1746 40.98 24.8506 40.62C24.5266 40.272 24.3706 39.84 24.3706 39.312ZM33.2504 42C34.0184 42 34.5944 41.88 35.0024 41.628C35.4104 41.376 35.6144 41.004 35.6144 40.5C35.6144 40.176 35.5184 39.9 35.3504 39.684C35.1824 39.468 34.9184 39.312 34.5704 39.204C34.8344 39.096 35.0264 38.94 35.1704 38.736C35.3024 38.544 35.3744 38.304 35.3744 38.016C35.3744 37.572 35.1944 37.224 34.8344 36.984C34.4744 36.744 33.9704 36.612 33.3464 36.612H30.6704V42H33.2504ZM34.2824 38.136C34.2824 38.376 34.1984 38.544 34.0304 38.664C33.8624 38.784 33.6104 38.844 33.2984 38.844H31.7264V37.428H33.2984C33.6104 37.428 33.8624 37.488 34.0304 37.608C34.1984 37.728 34.2824 37.908 34.2824 38.136ZM34.4984 40.428C34.4984 40.692 34.3904 40.884 34.1984 41.004C34.0064 41.124 33.7064 41.184 33.3224 41.184H31.7264V39.66H33.3224C33.7184 39.66 34.0184 39.732 34.2104 39.852C34.4024 39.984 34.4984 40.176 34.4984 40.428ZM41.9988 42V36.612H40.9068V38.76H38.2428V36.612H37.1508V42H38.2428V39.696H40.9068V42H41.9988ZM49.0017 42V36.612H48.0657L47.9337 37.392C47.7057 37.104 47.4417 36.888 47.1297 36.732C46.8177 36.576 46.4697 36.492 46.1097 36.492C45.3537 36.492 44.7297 36.768 44.2257 37.296C43.7217 37.836 43.4817 38.508 43.4817 39.312C43.4817 40.116 43.7217 40.788 44.2257 41.316C44.7297 41.856 45.3537 42.12 46.1097 42.12C46.4697 42.12 46.8177 42.048 47.1297 41.892C47.4417 41.736 47.7057 41.508 47.9337 41.22L48.0657 42H49.0017ZM44.5737 39.312C44.5737 38.784 44.7297 38.352 45.0537 37.992C45.3777 37.644 45.7857 37.464 46.2777 37.464C46.7577 37.464 47.1657 37.644 47.5017 37.992C47.8257 38.352 47.9937 38.784 47.9937 39.312C47.9937 39.84 47.8257 40.272 47.5017 40.62C47.1657 40.98 46.7577 41.148 46.2777 41.148C45.7857 41.148 45.3777 40.98 45.0537 40.62C44.7297 40.272 44.5737 39.84 44.5737 39.312ZM50.6575 38.28C50.6575 38.688 50.7775 39.012 51.0295 39.276C51.2815 39.54 51.6415 39.72 52.0975 39.816L50.4295 42H51.6655L53.1655 39.948H54.3175V42H55.3975V36.612H52.8415C52.1815 36.612 51.6535 36.768 51.2575 37.056C50.8495 37.356 50.6575 37.764 50.6575 38.28ZM51.7735 38.28C51.7735 38.028 51.8695 37.824 52.0615 37.68C52.2535 37.536 52.5175 37.452 52.8535 37.452H54.3175V39.096H52.8535C52.5175 39.096 52.2535 39.024 52.0615 38.88C51.8695 38.736 51.7735 38.544 51.7735 38.28Z" fill="#252424"/>
<path fill-rule="evenodd" clip-rule="evenodd" d="M33.3745 1.58801C33.4743 1.47066 33.6555 1.47066 33.7553 1.58802L42.5668 11.9464C42.7049 12.1088 42.5895 12.3584 42.3764 12.3584H41.7474C41.057 12.3584 40.4974 12.9181 40.4974 13.6084V21.1567C40.4974 21.2948 40.3855 21.4067 40.2474 21.4067H36.6649V21.3705V16.6205C36.6649 15.5159 35.7694 14.6205 34.6649 14.6205H32.4698C31.3653 14.6205 30.4698 15.5159 30.4698 16.6205V21.3705V21.4067H26.8824C26.7443 21.4067 26.6324 21.2948 26.6324 21.1567V13.6084C26.6324 12.9181 26.0727 12.3584 25.3824 12.3584H24.7534C24.5402 12.3584 24.4248 12.1088 24.5629 11.9464L33.3745 1.58801ZM34.8978 0.616104C34.199 -0.205365 32.9307 -0.20537 32.2319 0.616103L23.4204 10.9745C22.4537 12.111 23.2613 13.8584 24.7534 13.8584H25.1324V21.1567C25.1324 22.1232 25.9159 22.9067 26.8824 22.9067H40.2474C41.2139 22.9067 41.9974 22.1232 41.9974 21.1567V13.8584H42.3764C43.8684 13.8584 44.6761 12.111 43.7093 10.9745L34.8978 0.616104ZM31.9698 16.6205C31.9698 16.3443 32.1937 16.1205 32.4698 16.1205H34.6649C34.941 16.1205 35.1649 16.3443 35.1649 16.6205V19.8705V21.3705H33.6649H33.4698H31.9698V19.8705V16.6205Z" fill="#252424"/>
</svg>
