<svg width="69" height="45" viewBox="0 0 69 45" fill="none" xmlns="http://www.w3.org/2000/svg">
<path d="M12.1592 42V34.788H16.3472V42H17.4872V33.78H11.0192V42H12.1592ZM21.9925 36.492C21.1885 36.492 20.5165 36.768 19.9885 37.296C19.4605 37.836 19.1965 38.508 19.1965 39.312C19.1965 40.128 19.4605 40.8 19.9885 41.328C20.5165 41.856 21.1885 42.12 21.9925 42.12C22.7845 42.12 23.4565 41.856 23.9845 41.328C24.5125 40.8 24.7885 40.128 24.7885 39.312C24.7885 38.508 24.5125 37.836 23.9845 37.296C23.4565 36.768 22.7845 36.492 21.9925 36.492ZM21.9925 37.464C22.4725 37.464 22.8805 37.644 23.2045 37.992C23.5285 38.352 23.6965 38.784 23.6965 39.312C23.6965 39.84 23.5285 40.284 23.2045 40.632C22.8805 40.98 22.4725 41.148 21.9925 41.148C21.5005 41.148 21.0925 40.98 20.7685 40.62C20.4445 40.272 20.2885 39.84 20.2885 39.312C20.2885 38.784 20.4445 38.352 20.7685 37.992C21.0925 37.644 21.5005 37.464 21.9925 37.464ZM31.8279 43.752V41.112H31.2159L29.2479 36.612H28.0959L26.1519 41.112H25.5279V43.752H26.5359V42H30.8199V43.752H31.8279ZM28.6479 37.728L30.0759 41.112H27.2439L28.6479 37.728ZM38.0876 42V36.612H37.1516L37.0196 37.392C36.7916 37.104 36.5276 36.888 36.2156 36.732C35.9036 36.576 35.5556 36.492 35.1956 36.492C34.4396 36.492 33.8156 36.768 33.3116 37.296C32.8076 37.836 32.5676 38.508 32.5676 39.312C32.5676 40.116 32.8076 40.788 33.3116 41.316C33.8156 41.856 34.4396 42.12 35.1956 42.12C35.5556 42.12 35.9036 42.048 36.2156 41.892C36.5276 41.736 36.7916 41.508 37.0196 41.22L37.1516 42H38.0876ZM33.6596 39.312C33.6596 38.784 33.8156 38.352 34.1396 37.992C34.4636 37.644 34.8716 37.464 35.3636 37.464C35.8436 37.464 36.2516 37.644 36.5876 37.992C36.9116 38.352 37.0796 38.784 37.0796 39.312C37.0796 39.84 36.9116 40.272 36.5876 40.62C36.2516 40.98 35.8436 41.148 35.3636 41.148C34.8716 41.148 34.4636 40.98 34.1396 40.62C33.8156 40.272 33.6596 39.84 33.6596 39.312ZM45.4794 39.3C45.4794 38.508 45.2274 37.836 44.7234 37.296C44.2194 36.768 43.5954 36.492 42.8514 36.492C42.4794 36.492 42.1434 36.576 41.8314 36.732C41.5194 36.888 41.2434 37.104 41.0274 37.392L40.8954 36.612H39.9594V44.4H41.0514V41.256C41.2674 41.544 41.5314 41.76 41.8434 41.904C42.1554 42.048 42.4914 42.12 42.8514 42.12C43.5954 42.12 44.2194 41.856 44.7234 41.316C45.2274 40.788 45.4794 40.116 45.4794 39.3ZM42.6834 37.464C43.1634 37.464 43.5714 37.644 43.8954 37.992C44.2194 38.352 44.3874 38.784 44.3874 39.3C44.3874 39.828 44.2194 40.272 43.8954 40.62C43.5714 40.98 43.1634 41.148 42.6834 41.148C42.1914 41.148 41.7834 40.98 41.4594 40.62C41.1234 40.272 40.9674 39.828 40.9674 39.3C40.9674 38.784 41.1234 38.352 41.4594 37.992C41.7834 37.644 42.1914 37.464 42.6834 37.464ZM48.4913 39.66C48.6113 39.66 48.7313 39.66 48.8513 39.648C48.9713 39.636 49.0793 39.612 49.1992 39.588L50.8913 42H52.1992L50.1113 39.108C50.2793 38.964 50.4473 38.784 50.6273 38.556C50.7953 38.34 50.9993 38.052 51.2153 37.704L51.9473 36.612H50.7713L50.0393 37.704C49.7993 38.064 49.5592 38.328 49.3193 38.472C49.0793 38.628 48.8033 38.7 48.4913 38.7H48.0593V36.612H46.9673V42H48.0593V39.66H48.4913ZM58.202 42V36.612H57.182L54.374 40.5V36.612H53.354V42H54.374L57.182 38.112V42H58.202Z" fill="#7E839C"/>
<path d="M34.8358 4.99996C35.021 4.25782 34.9053 3.38466 34.4511 2.59805C33.6227 1.16317 31.9818 0.559619 30.786 1.24997C29.7421 1.85269 29.3826 3.54871 29.8594 4.92446" stroke="#7E839C" stroke-width="1.5"/>
<path d="M35.1642 4.99996C34.979 4.25782 35.0947 3.38466 35.5489 2.59805C36.3773 1.16317 38.0182 0.559619 39.214 1.24997C40.2579 1.85269 40.6174 3.54871 40.1406 4.92446" stroke="#7E839C" stroke-width="1.5"/>
<path d="M35 5V22.5" stroke="#7E839C" stroke-width="1.5"/>
<path d="M25.5 12H44.5" stroke="#7E839C" stroke-width="1.5"/>
<path d="M44 5H26C25.4477 5 25 5.44772 25 6V11.5C25 11.7761 25.2239 12 25.5 12C25.7761 12 26 12.2239 26 12.5V22C26 22.5523 26.4477 23 27 23H43C43.5523 23 44 22.5523 44 22V12.5C44 12.2239 44.2239 12 44.5 12C44.7761 12 45 11.7761 45 11.5V6C45 5.44772 44.5523 5 44 5Z" stroke="#7E839C" stroke-width="1.5"/>
</svg>
