<svg width="68" height="80" viewBox="0 0 68 80" fill="none" xmlns="http://www.w3.org/2000/svg">
<path d="M17.9384 69.704C18.3464 69.704 18.7304 69.788 19.1024 69.956C19.4624 70.124 19.8104 70.364 20.1344 70.676L20.8424 69.908C20.4344 69.5 19.9904 69.2 19.4984 68.984C19.0064 68.768 18.4904 68.66 17.9384 68.66C16.7624 68.66 15.7904 69.068 15.0104 69.872C14.2304 70.688 13.8464 71.696 13.8464 72.896C13.8464 74.096 14.2304 75.104 15.0104 75.908C15.7904 76.724 16.7624 77.12 17.9384 77.12C18.5024 77.12 19.0424 77.012 19.5464 76.784C20.0504 76.568 20.5184 76.22 20.9624 75.764L20.2304 74.984C19.8944 75.356 19.5464 75.632 19.1624 75.812C18.7784 75.992 18.3704 76.076 17.9384 76.076C17.0984 76.076 16.4024 75.776 15.8504 75.176C15.2984 74.576 15.0224 73.808 15.0224 72.896C15.0224 71.984 15.2984 71.228 15.8504 70.616C16.4024 70.016 17.0984 69.704 17.9384 69.704ZM23.7452 74.66C23.8652 74.66 23.9852 74.66 24.1052 74.648C24.2252 74.636 24.3332 74.612 24.4532 74.588L26.1452 77H27.4532L25.3652 74.108C25.5332 73.964 25.7012 73.784 25.8812 73.556C26.0492 73.34 26.2532 73.052 26.4692 72.704L27.2012 71.612H26.0252L25.2932 72.704C25.0532 73.064 24.8132 73.328 24.5732 73.472C24.3332 73.628 24.0572 73.7 23.7452 73.7H23.3132V71.612H22.2212V77H23.3132V74.66H23.7452ZM33.7439 77V71.612H32.8079L32.6759 72.392C32.4479 72.104 32.1839 71.888 31.8719 71.732C31.5599 71.576 31.2119 71.492 30.8519 71.492C30.0959 71.492 29.4719 71.768 28.9679 72.296C28.4639 72.836 28.2239 73.508 28.2239 74.312C28.2239 75.116 28.4639 75.788 28.9679 76.316C29.4719 76.856 30.0959 77.12 30.8519 77.12C31.2119 77.12 31.5599 77.048 31.8719 76.892C32.1839 76.736 32.4479 76.508 32.6759 76.22L32.8079 77H33.7439ZM29.3159 74.312C29.3159 73.784 29.4719 73.352 29.7959 72.992C30.1199 72.644 30.5279 72.464 31.0199 72.464C31.4999 72.464 31.9079 72.644 32.2439 72.992C32.5679 73.352 32.7359 73.784 32.7359 74.312C32.7359 74.84 32.5679 75.272 32.2439 75.62C31.9079 75.98 31.4999 76.148 31.0199 76.148C30.5279 76.148 30.1199 75.98 29.7959 75.62C29.4719 75.272 29.3159 74.84 29.3159 74.312ZM40.4637 77V71.612H39.3717V73.76H36.7077V71.612H35.6157V77H36.7077V74.696H39.3717V77H40.4637ZM46.2665 75.56C46.0385 75.776 45.7985 75.932 45.5465 76.028C45.2945 76.124 45.0185 76.172 44.7305 76.172C44.3225 76.172 43.9625 76.04 43.6505 75.776C43.3385 75.512 43.1345 75.176 43.0505 74.756H47.2745C47.2745 74.684 47.2865 74.612 47.2985 74.54C47.2985 74.468 47.3105 74.384 47.3105 74.312C47.3105 73.52 47.0465 72.86 46.5305 72.308C46.0025 71.768 45.3665 71.492 44.6225 71.492C43.8665 71.492 43.2305 71.768 42.7145 72.308C42.1865 72.86 41.9345 73.52 41.9345 74.312C41.9345 75.104 42.1985 75.764 42.7505 76.304C43.2905 76.856 43.9505 77.12 44.7425 77.12C45.1625 77.12 45.5585 77.06 45.9185 76.916C46.2785 76.772 46.6025 76.568 46.9145 76.28L46.2665 75.56ZM44.6225 72.44C44.9945 72.44 45.3305 72.572 45.6305 72.824C45.9185 73.088 46.1105 73.412 46.2065 73.82H43.0625C43.1465 73.412 43.3385 73.088 43.6265 72.824C43.9145 72.572 44.2385 72.44 44.6225 72.44ZM54.2138 74.3C54.2138 73.508 53.9618 72.836 53.4578 72.296C52.9538 71.768 52.3298 71.492 51.5858 71.492C51.2138 71.492 50.8778 71.576 50.5658 71.732C50.2538 71.888 49.9778 72.104 49.7618 72.392L49.6298 71.612H48.6938V79.4H49.7858V76.256C50.0018 76.544 50.2658 76.76 50.5778 76.904C50.8898 77.048 51.2258 77.12 51.5858 77.12C52.3298 77.12 52.9538 76.856 53.4578 76.316C53.9618 75.788 54.2138 75.116 54.2138 74.3ZM51.4178 72.464C51.8978 72.464 52.3058 72.644 52.6298 72.992C52.9538 73.352 53.1218 73.784 53.1218 74.3C53.1218 74.828 52.9538 75.272 52.6298 75.62C52.3058 75.98 51.8978 76.148 51.4178 76.148C50.9258 76.148 50.5178 75.98 50.1938 75.62C49.8578 75.272 49.7018 74.828 49.7018 74.3C49.7018 73.784 49.8578 73.352 50.1938 72.992C50.5178 72.644 50.9258 72.464 51.4178 72.464Z" fill="#7E839C"/>
<circle cx="34" cy="29" r="28.25" fill="#FF7431" stroke="#FF7431" stroke-width="1.5"/>
<path fill-rule="evenodd" clip-rule="evenodd" d="M23.75 18.5C23.6119 18.5 23.5 18.6119 23.5 18.75V22.4439C23.5 22.8581 23.1642 23.1939 22.75 23.1939C22.3358 23.1939 22 22.8581 22 22.4439V18.75C22 17.7835 22.7835 17 23.75 17H27.4439C27.8581 17 28.1939 17.3358 28.1939 17.75C28.1939 18.1642 27.8581 18.5 27.4439 18.5H23.75ZM28.0051 25.6378V23.0051H30.6378V25.6378H28.0051ZM26.5051 22.5051C26.5051 21.9528 26.9528 21.5051 27.5051 21.5051H31.1378C31.69 21.5051 32.1378 21.9528 32.1378 22.5051V26.1378C32.1378 26.69 31.69 27.1378 31.1378 27.1378H27.5051C26.9528 27.1378 26.5051 26.69 26.5051 26.1378V22.5051ZM36.4541 25.6378V23.0051H39.0867V25.6378H36.4541ZM34.9541 22.5051C34.9541 21.9528 35.4018 21.5051 35.9541 21.5051H39.5867C40.139 21.5051 40.5867 21.9528 40.5867 22.5051V26.1378C40.5867 26.69 40.139 27.1378 39.5867 27.1378H35.9541C35.4018 27.1378 34.9541 26.69 34.9541 26.1378V22.5051ZM36.4541 31.4541V34.0867H39.0867V31.4541H36.4541ZM35.9541 29.9541C35.4018 29.9541 34.9541 30.4018 34.9541 30.9541V34.5867C34.9541 35.139 35.4018 35.5867 35.9541 35.5867H39.5867C40.139 35.5867 40.5867 35.139 40.5867 34.5867V30.9541C40.5867 30.4018 40.139 29.9541 39.5867 29.9541H35.9541ZM28.0051 34.0867V31.4541H30.6378V34.0867H28.0051ZM26.5051 30.9541C26.5051 30.4018 26.9528 29.9541 27.5051 29.9541H31.1378C31.69 29.9541 32.1378 30.4018 32.1378 30.9541V34.5867C32.1378 35.139 31.69 35.5867 31.1378 35.5867H27.5051C26.9528 35.5867 26.5051 35.139 26.5051 34.5867V30.9541ZM43.3418 38.5918C43.4799 38.5918 43.5918 38.4799 43.5918 38.3418V34.648C43.5918 34.2337 43.9276 33.898 44.3418 33.898C44.756 33.898 45.0918 34.2337 45.0918 34.648V38.3418C45.0918 39.3083 44.3083 40.0918 43.3418 40.0918H39.648C39.2337 40.0918 38.898 39.756 38.898 39.3418C38.898 38.9276 39.2337 38.5918 39.648 38.5918H43.3418ZM23.5 38.3418C23.5 38.4799 23.6119 38.5918 23.75 38.5918H27.4439C27.8581 38.5918 28.1939 38.9276 28.1939 39.3418C28.1939 39.756 27.8581 40.0918 27.4439 40.0918H23.75C22.7835 40.0918 22 39.3083 22 38.3418V34.648C22 34.2337 22.3358 33.898 22.75 33.898C23.1642 33.898 23.5 34.2337 23.5 34.648L23.5 38.3418ZM43.5918 18.75C43.5918 18.6119 43.4799 18.5 43.3418 18.5H39.648C39.2337 18.5 38.898 18.1642 38.898 17.75C38.898 17.3358 39.2337 17 39.648 17H43.3418C44.3083 17 45.0918 17.7835 45.0918 18.75V22.4439C45.0918 22.8581 44.756 23.1939 44.3418 23.1939C43.9276 23.1939 43.5918 22.8581 43.5918 22.4439V18.75Z" fill="white"/>
</svg>
